#!OML:ASF F:\VICON\USERDATA\INSTALL\rory3\rory3.ASF
:FULLY-SPECIFIED
:DEGREES
503
root -1.70043 18.5758 1.8556 169.143 -75.6344 -152.62
lowerback 19.8275 1.08179 -8.99659
upperback 8.20733 -1.12071 -3.42718
thorax -2.09802 -0.986985 1.67659
lowerneck -10.2822 3.11312 -6.51526
upperneck 20.1106 4.13259 4.73857
head 7.62493 1.77552 3.01412
rclavicle 6.52014e-014 2.22639e-014
rhumerus -17.1978 34.1471 -88.454
rradius 128.555
rwrist -18.2796
rhand -43.1339 7.95943
rfingers 7.12502
rthumb -15.9873 -21.4008
lclavicle 6.52014e-014 2.22639e-014
lhumerus 17.3528 -3.65108 79.2592
lradius 18.2323
lwrist -16.3794
lhand -31.7993 18.2118
lfingers 7.12502
lthumb -5.05496 48.1315
rfemur -34.3997 17.2946 7.20738
rtibia 25.6911
rfoot -5.39762 -18.6272
rtoes -4.51475
lfemur -30.0228 13.4105 -10.7348
ltibia 34.9508
lfoot -15.4329 11.5527
ltoes -16.6565
504
root -1.6872 18.5561 1.79177 169.266 -75.3781 -152.885
lowerback 20.0109 0.882697 -8.67878
upperback 8.21557 -1.3784 -3.8222
thorax -2.18335 -1.10504 1.1342
lowerneck -10.1652 3.3528 -5.91425
upperneck 19.7388 4.39384 4.55091
head 7.48521 1.93543 2.86251
rclavicle -2.06736e-014 -2.8625e-014
rhumerus -17.2342 33.8516 -88.8836
rradius 128.655
rwrist -17.997
rhand -43.7796 8.13085
rfingers 7.12502
rthumb -16.6091 -21.1785
lclavicle -2.06736e-014 -2.8625e-014
lhumerus 17.6741 -4.00203 78.8022
lradius 18.2927
lwrist -16.1578
lhand -32.2324 18.9508
lfingers 7.12502
lthumb -5.47312 48.8601
rfemur -34.3201 16.962 7.58821
rtibia 25.7975
rfoot -5.43685 -17.9226
rtoes -5.58202
lfemur -29.981 13.6589 -10.4371
ltibia 35.3312
lfoot -15.3903 11.6966
ltoes -18.7923
505
root -1.67472 18.5391 1.72925 169.164 -75.1557 -152.85
lowerback 20.0003 0.780567 -8.689
upperback 8.31808 -1.5148 -3.83322
thorax -2.05621 -1.18356 1.15475
lowerneck -10.1897 3.49649 -5.7496
upperneck 19.3269 4.63335 4.299
head 7.35355 2.05181 2.7635
rclavicle 3.49861e-014 5.88403e-014
rhumerus -17.0114 33.7382 -88.5072
rradius 128.869
rwrist -18.061
rhand -43.9029 8.20778
rfingers 7.12502
rthumb -16.7277 -21.0915
lclavicle 3.49861e-014 5.88403e-014
lhumerus 18.2237 -3.47057 79.2615
lradius 18.0935
lwrist -16.7767
lhand -32.3251 19.5377
lfingers 7.12502
lthumb -5.56259 49.4447
rfemur -34.2923 16.7059 7.99636
rtibia 25.9677
rfoot -5.50971 -17.2871
rtoes -8.00101
lfemur -29.9971 13.8695 -10.0907
ltibia 35.6865
lfoot -15.4672 11.6979
ltoes -18.84
506
root -1.66145 18.5161 1.66705 169.498 -74.9213 -153.266
lowerback 20.0694 0.661092 -8.67883
upperback 8.37115 -1.69241 -3.98275
thorax -2.0259 -1.2759 1.02666
lowerneck -10.5885 3.63522 -5.91868
upperneck 19.4239 4.81489 4.63261
head 7.43105 2.15823 2.9285
rclavicle -4.77083e-014 -1.28812e-013
rhumerus -17.052 33.7676 -88.5967
rradius 129.111
rwrist -17.8233
rhand -43.7052 7.6582
rfingers 7.12502
rthumb -16.5374 -21.6571
lclavicle -4.77083e-014 -1.28812e-013
lhumerus 18.701 -3.25732 79.4377
lradius 17.836
lwrist -17.0795
lhand -32.2858 19.7334
lfingers 7.12502
lthumb -5.5247 49.6413
rfemur -34.264 16.3042 8.37084
rtibia 26.1547
rfoot -5.35218 -16.2901
rtoes -10.114
lfemur -29.9698 13.974 -9.8252
ltibia 36.0161
lfoot -15.6657 11.7268
ltoes -18.0353
507
root -1.65071 18.4942 1.60495 169.616 -74.6904 -153.546
lowerback 20.2994 0.521211 -8.67563
upperback 8.37589 -1.91643 -4.09891
thorax -2.12603 -1.38471 0.95222
lowerneck -10.837 3.84313 -5.85357
upperneck 19.5346 5.09082 4.67338
head 7.49593 2.29608 2.96412
rclavicle 3.02153e-014 1.59028e-014
rhumerus -17.3234 34.0798 -88.9041
rradius 129.264
rwrist -17.2269
rhand -43.8224 7.39944
rfingers 7.12502
rthumb -16.6503 -21.9064
lclavicle 3.02153e-014 1.59028e-014
lhumerus 18.8997 -3.37666 79.4058
lradius 17.7678
lwrist -16.8569
lhand -33.1293 21.4021
lfingers 7.12502
lthumb -6.33903 51.2872
rfemur -34.1322 15.8484 8.82959
rtibia 26.3556
rfoot -5.33808 -15.115
rtoes -10.8604
lfemur -29.8223 14.1095 -9.52405
ltibia 36.2708
lfoot -15.8457 11.7616
ltoes -17.8106
508
root -1.64406 18.4776 1.5429 169.537 -74.4706 -153.573
lowerback 20.5131 0.379781 -8.69097
upperback 8.34589 -2.13103 -4.08796
thorax -2.25039 -1.48586 1.02343
lowerneck -10.8032 4.06606 -5.65813
upperneck 19.3479 5.42329 4.3689
head 7.42635 2.44438 2.85443
rclavicle 4.77083e-014 -3.33958e-014
rhumerus -17.6547 34.5493 -88.9498
rradius 129.509
rwrist -16.6689
rhand -44.1955 7.15937
rfingers 7.12502
rthumb -17.0094 -22.1159
lclavicle 4.77083e-014 -3.33958e-014
lhumerus 19.0994 -2.90988 79.7955
lradius 17.5113
lwrist -17.2466
lhand -33.7399 22.2427
lfingers 7.12502
lthumb -6.92847 52.1093
rfemur -34.0513 15.5598 9.24883
rtibia 26.5155
rfoot -5.56804 -14.2012
rtoes -11.005
lfemur -29.676 14.3003 -9.18324
ltibia 36.4536
lfoot -15.9617 11.7227
ltoes -18.1081
509
root -1.63784 18.4649 1.47981 169.915 -74.2045 -154.073
lowerback 20.7585 0.28698 -8.91725
upperback 8.29494 -2.32636 -4.03553
thorax -2.40189 -1.58032 1.25435
lowerneck -10.8833 4.28222 -5.622
upperneck 19.2393 5.7755 4.09626
head 7.39745 2.59278 2.78865
rclavicle 1.90833e-014 -3.97569e-014
rhumerus -17.8511 35.1712 -88.7885
rradius 129.672
rwrist -15.9136
rhand -44.4038 7.0988
rfingers 7.12502
rthumb -17.2099 -22.1591
lclavicle 1.90833e-014 -3.97569e-014
lhumerus 19.2324 -2.21074 80.3156
lradius 17.2686
lwrist -18.0736
lhand -33.5707 21.2773
lfingers 7.12502
lthumb -6.76518 51.1492
rfemur -33.9941 15.4686 9.47681
rtibia 26.5842
rfoot -5.87624 -13.5271
rtoes -10.7031
lfemur -29.4731 14.4996 -8.9682
ltibia 36.5855
lfoot -15.964 11.8274
ltoes -18.6924
510
root -1.63222 18.4559 1.4143 169.934 -73.9399 -154.194
lowerback 20.9723 0.165935 -9.10462
upperback 8.29456 -2.54387 -3.95091
thorax -2.47866 -1.68988 1.50193
lowerneck -11.0318 4.52639 -5.62114
upperneck 19.1141 6.16638 3.88339
head 7.37097 2.76414 2.75319
rclavicle 1.59028e-015 -2.38542e-014
rhumerus -17.9395 35.8955 -88.6576
rradius 129.819
rwrist -14.9901
rhand -44.8048 7.07222
rfingers 7.12502
rthumb -17.5958 -22.1515
lclavicle 1.59028e-015 -2.38542e-014
lhumerus 19.3783 -1.63463 80.7034
lradius 17.15
lwrist -18.6241
lhand -33.271 20.566
lfingers 7.12502
lthumb -6.47582 50.447
rfemur -33.9072 15.6689 9.73354
rtibia 26.5801
rfoot -6.22162 -13.1893
rtoes -10.1267
lfemur -29.2324 14.5015 -8.58874
ltibia 36.673
lfoot -15.9989 12.0456
ltoes -18.8066
511
root -1.62796 18.4468 1.3539 169.394 -73.6743 -153.653
lowerback 21.0597 -0.0340352 -8.8492
upperback 8.3401 -2.76182 -3.93742
thorax -2.46902 -1.79509 1.42361
lowerneck -11.1892 4.75579 -5.53031
upperneck 18.9521 6.51323 3.71403
head 7.33835 2.92676 2.71323
rclavicle -1.90833e-014 1.43125e-014
rhumerus -17.9863 36.4798 -88.6488
rradius 129.96
rwrist -14.1474
rhand -45.2705 6.98619
rfingers 7.12502
rthumb -18.0439 -22.1968
lclavicle -1.90833e-014 1.43125e-014
lhumerus 19.5453 -1.73064 80.6824
lradius 17.1629
lwrist -18.5073
lhand -33.3715 20.5742
lfingers 7.12502
lthumb -6.57282 50.4522
rfemur -33.8158 15.7594 10.2225
rtibia 26.4788
rfoot -6.4186 -12.8776
rtoes -10.2384
lfemur -29.0871 14.4571 -8.01613
ltibia 36.7635
lfoot -16.1783 12.1382
ltoes -18.3218
512
root -1.6251 18.4386 1.2907 169.194 -73.4049 -153.469
lowerback 21.116 -0.242672 -8.53967
upperback 8.38839 -2.99043 -4.08053
thorax -2.45407 -1.90456 1.1492
lowerneck -11.3438 5.01603 -5.21673
upperneck 18.916 6.85629 3.52346
head 7.35621 3.09585 2.63408
rclavicle -2.70347e-014 3.18055e-015
rhumerus -18.1132 37.0699 -88.9404
rradius 130.114
rwrist -13.2541
rhand -45.5025 6.61205
rfingers 7.12502
rthumb -18.2671 -22.5502
lclavicle -2.70347e-014 3.18055e-015
lhumerus 19.6738 -2.05009 80.38
lradius 17.0882
lwrist -18.2993
lhand -33.377 20.6531
lfingers 7.12502
lthumb -6.57815 50.531
rfemur -33.6614 15.7826 10.6593
rtibia 26.2724
rfoot -6.49647 -12.5018
rtoes -10.5708
lfemur -28.9515 14.5669 -7.5728
ltibia 36.8779
lfoot -16.3618 12.1339
ltoes -17.6034
513
root -1.62404 18.4267 1.22381 168.441 -73.0175 -152.564
lowerback 21.0996 -0.456831 -8.16962
upperback 8.34698 -3.18754 -4.07491
thorax -2.4993 -1.98879 0.993666
lowerneck -11.2414 5.31776 -4.83687
upperneck 18.6595 7.27011 3.1249
head 7.26732 3.2894 2.46849
rclavicle -1.06549e-013 -1.08139e-013
rhumerus -18.3717 37.9128 -89.2083
rradius 130.229
rwrist -12.017
rhand -45.7213 6.25148
rfingers 7.12502
rthumb -18.4776 -22.8909
lclavicle -1.06549e-013 -1.08139e-013
lhumerus 19.61 -2.48141 80.1214
lradius 17.138
lwrist -17.9195
lhand -33.5418 20.6
lfingers 7.12502
lthumb -6.73722 50.4728
rfemur -33.641 16.0083 11.2865
rtibia 26.028
rfoot -6.61496 -12.2704
rtoes -10.4516
lfemur -28.9185 14.6566 -6.87121
ltibia 36.9684
lfoot -16.4375 12.3194
ltoes -17.4287
514
root -1.62249 18.4145 1.15216 167.012 -72.6315 -151.032
lowerback 21.2795 -0.601793 -8.02264
upperback 8.27345 -3.32923 -3.67905
thorax -2.64391 -2.04669 1.37518
lowerneck -11.2327 5.56356 -5.00573
upperneck 18.4651 7.70174 2.80491
head 7.19266 3.46028 2.42262
rclavicle -5.88403e-014 -4.13472e-014
rhumerus -18.5873 38.8212 -88.9892
rradius 130.374
rwrist -10.5641
rhand -46.0009 5.69161
rfingers 7.12502
rthumb -18.7465 -23.4251
lclavicle -5.88403e-014 -4.13472e-014
lhumerus 19.4561 -2.5702 80.458
lradius 17.2426
lwrist -17.5838
lhand -33.8065 20.7961
lfingers 7.12502
lthumb -6.99275 50.6605
rfemur -33.5301 16.4995 12.0759
rtibia 25.8279
rfoot -6.87595 -12.3876
rtoes -10.2292
lfemur -28.7623 14.7116 -5.93313
ltibia 36.9343
lfoot -16.4247 12.5051
ltoes -17.7834
515
root -1.62396 18.4058 1.07744 166.553 -72.3963 -150.587
lowerback 21.4693 -0.627583 -8.62287
upperback 8.23491 -3.45094 -3.025
thorax -2.68511 -2.11671 2.4434
lowerneck -11.4547 5.72045 -5.8147
upperneck 18.491 8.10836 2.68329
head 7.19631 3.58683 2.55411
rclavicle -7.79236e-014 -7.31528e-014
rhumerus -18.6557 39.8142 -88.2429
rradius 130.522
rwrist -9.09294
rhand -45.9459 4.69874
rfingers 7.12502
rthumb -18.6936 -24.423
lclavicle -7.79236e-014 -7.31528e-014
lhumerus 19.3628 -1.4739 81.693
lradius 17.1303
lwrist -18.4677
lhand -33.8372 20.4282
lfingers 7.12502
lthumb -7.02241 50.2917
rfemur -33.2866 17.0187 12.474
rtibia 25.5504
rfoot -7.17146 -12.6579
rtoes -10.2358
lfemur -28.4898 14.7689 -5.38749
ltibia 36.8505
lfoot -16.4487 12.6165
ltoes -18.1175
516
root -1.62857 18.4133 1.02306 168.879 -72.3721 -152.862
lowerback 21.4588 -0.749348 -9.49815
upperback 8.1561 -3.77545 -2.92503
thorax -2.65788 -2.28797 3.10843
lowerneck -11.5119 5.92774 -6.22788
upperneck 18.4295 8.49313 2.57219
head 7.15731 3.73307 2.61477
rclavicle 9.54166e-015 5.08889e-014
rhumerus -18.888 40.9867 -88.1425
rradius 130.78
rwrist -7.84065
rhand -46.4873 2.92471
rfingers 7.12502
rthumb -19.2144 -26.1461
lclavicle 9.54166e-015 5.08889e-014
lhumerus 19.2592 -0.422095 82.4869
lradius 17.0194
lwrist -19.4719
lhand -33.4267 19.7548
lfingers 7.12502
lthumb -6.62618 49.6312
rfemur -33.2599 16.9182 11.9689
rtibia 25.2746
rfoot -7.52366 -12.3264
rtoes -9.29103
lfemur -28.3112 14.6277 -5.9149
ltibia 36.6384
lfoot -16.5546 12.9278
ltoes -18.0427
517
root -1.63219 18.4089 0.933614 166.963 -72.0683 -151.001
lowerback 21.4368 -0.861254 -9.37885
upperback 8.27273 -3.85928 -2.51223
thorax -2.48627 -2.34469 3.49629
lowerneck -11.4136 6.13177 -6.23968
upperneck 18.1979 8.83655 2.18919
head 7.06953 3.86924 2.51085
rclavicle 4.13472e-014 -6.36111e-015
rhumerus -19.3891 42.4425 -88.3288
rradius 130.982
rwrist -5.65174
rhand -49.1023 -0.858138
rfingers 7.12502
rthumb -21.7273 -29.6588
lclavicle 4.13472e-014 -6.36111e-015
lhumerus 19.2014 0.0208666 83.0768
lradius 16.9331
lwrist -20.1745
lhand -32.9084 19.2348
lfingers 7.12502
lthumb -6.12579 49.1263
rfemur -32.8944 17.4792 12.9254
rtibia 25.0075
rfoot -7.92687 -12.546
rtoes -8.13126
lfemur -27.8349 14.6499 -4.82373
ltibia 36.3519
lfoot -16.3061 13.196
ltoes -18.8558
